PathFileType	4	(X/Y/Z)	6_2_40_p1_0-297_filt_butterworth.trc
DataRate	CameraRate	NumFrames	NumMarkers	Units	OrigDataRate	OrigDataStartFrame	OrigNumFrames
60.0	60.0	5	27	m	60.0	222	297
Frame#	Time	RHip			RKnee			RAnkle			RBigToe			RSmallToe			RHeel			LHip			LKnee			LAnkle			LBigToe			LSmallToe			LHeel			Neck			Head			Nose			RShoulder			RElbow			RWrist			RThumb			RIndex			RPinky			LShoulder			LElbow			LWrist			LThumb			LIndex			LPinky			
		X1	Y1	Z1	X2	Y2	Z2	X3	Y3	Z3	X4	Y4	Z4	X5	Y5	Z5	X6	Y6	Z6	X7	Y7	Z7	X8	Y8	Z8	X9	Y9	Z9	X10	Y10	Z10	X11	Y11	Z11	X12	Y12	Z12	X13	Y13	Z13	X14	Y14	Z14	X15	Y15	Z15	X16	Y16	Z16	X17	Y17	Z17	X18	Y18	Z18	X19	Y19	Z19	X20	Y20	Z20	X21	Y21	Z21	X22	Y22	Z22	X23	Y23	Z23	X24	Y24	Z24	X25	Y25	Z25	X26	Y26	Z26	X27	Y27	Z27	
222	3.7	0.25495978246741574	0.46351215020082015	0.7426113649570738	0.2904029374752724	0.4724912801408834	1.1309760983431334	0.2785077728515853	0.5861519367641067	1.5116680784619534	0.27414412225233964	0.3536021891772152	1.5072332850980181	0.3344525005297172	0.4344366688186566	1.5389155478878067	0.2562621436089124	0.5979091002405378	1.561964698074408	0.053215586248243296	0.4531579717245676	0.7485591637367983	0.05861292514469397	0.4633164692041306	1.1368737416509027	0.1045900242197318	0.5317213147148807	1.5120210599711859	0.10653051520858373	0.4000119979875879	1.5562946888099143	0.05817896577714762	0.3820078208100456	1.5115431437040547	0.11849714508191042	0.6095983841901391	1.5739914393154049	0.1161225357571879	0.46036854887582135	0.18552963817278478	0.10632464222704718	0.4452200198324541	-0.040840660875725264	0.1237502413140543	0.3654478644015486	0.05427923033988713	0.26137952037032236	0.4520787212089346	0.2454855183530353	0.33760469216321887	0.4636044612568835	0.49411304297105413	0.33606419030835494	0.3564931171041251	0.7051904504532951	0.295975506607203	0.27923051353516115	0.7865523712383083	0.31315941646083817	0.2893885558839948	0.7959664897965186	0.34627514089397354	0.3542913786162147	0.8166430651430358	-0.02547902601346696	0.4798183251678635	0.26893492257363977	-0.07151049783682807	0.47027955412793665	0.5042903425649711	-0.05674165545442209	0.37675161466163326	0.702592862333574	0.004443183444839503	0.33478700131200806	0.7876616464527442	-0.00815155436743888	0.32427006549211473	0.8096430536649649	-0.05337415859818398	0.38333353568217904	0.8301084797843458
223	3.716666666666667	0.2550062794114691	0.4629981006075679	0.743871265388806	0.2899148966351557	0.4720962799135119	1.1314664436626785	0.278751229530719	0.5856567321756075	1.5129049552284481	0.2741530607168601	0.35363207154920945	1.5072940799203651	0.3345014499841755	0.43455341147163573	1.5390237064323868	0.25622010132089396	0.5971408059691836	1.5621986631014162	0.053656535741534075	0.4494370483747643	0.7496960350543528	0.05820728332618916	0.4614111149675432	1.1359941179097144	0.1046442198096423	0.5316989031800939	1.511992025487062	0.1067874524480955	0.3998728823011834	1.5552212497591564	0.059134817423351554	0.38701553440487096	1.5131067602887363	0.11857079182115908	0.6096638290451017	1.57406989138874	0.11613007419890875	0.46030916400740873	0.18653861038547095	0.10623851676371024	0.4451436859655733	-0.04086359541648407	0.12375408198348312	0.3654027062789582	0.05426268777384863	0.26115775641115324	0.4523543051532888	0.24526514139210176	0.3375725156147884	0.46275812601761956	0.4952752944894093	0.3239420051222566	0.3505958173632633	0.7041944663197461	0.28180371794966813	0.2686144562360381	0.7822665162151382	0.2965148376014629	0.27388995868061194	0.7916403874130244	0.3330722126946825	0.34616790208011866	0.8146957958673576	-0.025393945042060585	0.47964418263232966	0.26934781414428177	-0.06746988410730871	0.47133064186369145	0.5072235020938968	-0.039737719455876244	0.3629402365306661	0.7012483034653988	0.018355936155663277	0.3364032783604226	0.7926931697565446	0.004869008278442638	0.32481277698460453	0.8164893676650277	-0.03790850626697635	0.36594732854911605	0.8242092928990964
224	3.733333333333333	0.2550895874042705	0.4621390290394205	0.7455097715247402	0.2901717134190615	0.4722402025994958	1.1336651214514974	0.27895970341932796	0.5853396069542511	1.513875852497252	0.2741684881670599	0.3537301812737905	1.507345163398221	0.3345843417060157	0.4346756316170995	1.5391289982249894	0.2559413048979434	0.5961372830960702	1.5615437388750286	0.05471978600099908	0.4503312577202456	0.7534521247055156	0.057907040127556875	0.4569916413087165	1.1356968266168588	0.10469780649912735	0.5316726709249023	1.512083904693153	0.10714411176258257	0.39977620371984307	1.5538042291050866	0.06014638610537336	0.3909210794622407	1.5165459486607147	0.1184544036389647	0.6095985588299387	1.5732837536439204	0.11613503958680857	0.4602690832306665	0.1869376548600584	0.1061213388723648	0.44504225120085267	-0.040887075415144115	0.12374796573296874	0.3653418274018816	0.05423862361038462	0.26109010432156304	0.45245535378716295	0.2454764273257421	0.3365000124707781	0.4600510198257226	0.49598906493309847	0.3118799468162623	0.3428268363763265	0.7025834594187058	0.2632646208756726	0.2628226215023829	0.7802486090333501	0.27817958772213947	0.25785810246827484	0.786746522175986	0.31671051641205095	0.32748337148142326	0.8084961373128456	-0.025373007546585762	0.4796634372983944	0.26961446735871075	-0.06319664580326011	0.472685324722334	0.5097061780334564	-0.021674453557531045	0.35028625401998104	0.6996641954902509	0.034189938827470255	0.33589869991648424	0.7931753967993036	0.018296749075510495	0.3253632339772931	0.8191397479622148	-0.019231852981734406	0.347593310943101	0.8193230866270416
225	3.75	0.25522569005949247	0.4615773267273852	0.7467406460330639	0.29161484442346564	0.47267590537922666	1.1388725876319983	0.2790254160066046	0.5852042782432474	1.5142721311856049	0.27412924955580514	0.3539771338497335	1.5070527596691374	0.3346378204732341	0.43473975747808546	1.5391565751104597	0.2554721005647657	0.5955083810389996	1.559754813988696	0.056101411993460436	0.45611686933722584	0.7579457227139853	0.057559869190215815	0.4512135611538878	1.1361033220507393	0.10471615697082674	0.5316198987854449	1.5121878083539568	0.10742955276903038	0.39974919052768004	1.552742238863929	0.060592095763708	0.39240196147615836	1.5193024427875943	0.11807085070248331	0.6097710281741513	1.571514014140706	0.11614133945894786	0.4602366437147336	0.18693924205075363	0.1061871834972526	0.4450829067239793	-0.04088759494473128	0.12373861946332268	0.3652947811331468	0.05420664518047886	0.2615564483055243	0.45224473448410757	0.24602290311175015	0.33410314461466456	0.45597629490868913	0.49647099538580614	0.29990900566226114	0.33107288150928305	0.7009757683352901	0.2407000713051971	0.25871749225811613	0.7801670200587403	0.25744908348591145	0.24690093513976363	0.784105566652039	0.2970418452697223	0.3031356339606556	0.8010481144853944	-0.025426305825053706	0.47983486715177337	0.26904940103055214	-0.059486316802058674	0.4737378426633322	0.5113742967564043	-0.006543768628270219	0.34212991517387054	0.6986210189452373	0.05166178877688436	0.3322716986322962	0.788235401171593	0.03385552563556194	0.32534692614685845	0.8167587161000004	-0.0007825401853976308	0.33581408107563737	0.8186534801556415
226	3.7666666666666666	0.25542464432468837	0.46178989018291494	0.7471808924181165	0.2933816300503211	0.4728740441343678	1.1464082005449856	0.27892654067492306	0.5849662475045821	1.5142284585767833	0.27398216687435134	0.35444211558417515	1.506166925025	0.33460365447191615	0.43469015675155576	1.5390684055174935	0.25519748597625225	0.5954239297099992	1.5577196664754078	0.05675664403376062	0.46458172011668375	0.761151659763123	0.05738290911975118	0.4466301828018654	1.1373855275286258	0.10469886756561929	0.5315753171679589	1.5122861498780926	0.10758548383190479	0.39972545142813176	1.5523257113599531	0.0604300707240226	0.3922380494435017	1.5201076626022287	0.11748923149136267	0.6102940920866298	1.5692650233814422	0.116146194551235	0.4602063307644784	0.1868539613149251	0.10686709226398304	0.4454795880730553	-0.04084958730554663	0.12372829092922039	0.36527819502509334	0.05417141198284022	0.262782719888422	0.4518024077145625	0.24673295335026119	0.3305578248612592	0.4511336700745918	0.49674886643295196	0.2869451008182481	0.3164756709867907	0.7000114209667525	0.21678932518265637	0.2527324691950582	0.7796576359150708	0.2337801589909427	0.2416699543345795	0.7841569065724121	0.27282179835409487	0.28695379849791425	0.7978160460992564	-0.025564693729297223	0.4800846634306863	0.2678390209451866	-0.05638729797041246	0.47413927148732116	0.5123326765086009	0.003781673747587433	0.3409101497992605	0.6984782173257116	0.06896228434385805	0.3267422926067214	0.780846311837385	0.052645809012852686	0.3248802874612961	0.8120218182474195	0.016627277321225268	0.3326514399220452	0.8225753258751052
